<svg height="512pt" viewBox="0 0 512.00009 512" width="512pt" xmlns="http://www.w3.org/2000/svg"><path d="m512 255.78125c.117188 141.433594-114.460938 256.136719-255.847656 256.21875-140.496094.082031-254.199219-111.933594-256.1289065-252.414062-.4609375-33.691407 5.6054685-65.90625 16.9843745-95.484376.949219-2.460937 3.296876-4.101562 5.933594-4.101562 9.421875 0 17.058594-7.636719 17.058594-17.058594v-22.386718c0-1.3125.371094-2.59375 1.085938-3.695313 45.304687-69.835937 123.722656-116.203125 213.019531-116.8515625 142.484375-1.0351565 257.773437 113.2812495 257.894531 255.7734375zm0 0" fill="#c43286"/><path d="m465 362.769531v41.09375c-2.140625 3.019531-4.351562 5.984375-6.617188 8.90625h-191.351562c-14.703125 0-29.125-5.058593-40.605469-14.242187l-42.578125-34.0625-13.070312 20.042968c-12.046875 18.46875-32.398438 29.492188-54.445313 29.492188h-61.769531c-12.054688-15.347656-22.378906-32.117188-30.710938-50h97.480469c5.066407 0 9.796875-2.558594 12.5625-6.808594l14.011719-21.480468-49.566406-39.65625c-2.660156-2.128907-5.964844-3.285157-9.371094-3.285157h-86.328125c-1.730469-12.007812-2.640625-24.28125-2.640625-36.769531 0-4.4375.113281-8.847656.335938-13.230469h88.632812c14.703125 0 29.125 5.058594 40.605469 14.242188l45.773437 36.621093 31.332032-48.039062-72.882813-58.308594c-2.660156-2.125-5.964844-3.285156-9.371094-3.285156h-114.144531c2.027344-6.929688 4.339844-13.742188 6.921875-20.417969 6.894531-17.824219 24.03125-29.582031 43.140625-29.582031h59.082031c14.707031 0 29.125 5.058594 40.605469 14.242188l72.375 57.902343 27.816406-42.652343c12.042969-18.46875 32.398438-29.492188 54.445313-29.492188h95.949219c2.054687 3.789062 4.015624 7.636719 5.882812 11.535156v38.464844h-106.832031c-5.070313 0-9.796875 2.558594-12.5625 6.804688l-28.757813 44.09375 19.769532 15.816406c2.660156 2.125 5.96875 3.285156 9.371093 3.285156h141.972657v50h-136.972657c-14.757812 0-29.078125-5.023438-40.601562-14.242188l-19.265625-15.410156-31.332032 48.039063 46.371094 37.097656c2.648438 2.117187 5.976563 3.285156 9.371094 3.285156zm0 0" fill="#a72975"/><path d="m510.542969 373.753906-46.277344 38.097656c-2.609375 2.144532-6.539063.289063-6.539063-3.089843v-12.761719h-183.695312c-14.703125 0-29.125-5.058594-40.605469-14.242188l-128.085937-102.472656c-2.648438-2.117187-5.976563-3.285156-9.371094-3.285156h-95.195312c-.511719-6.601562-.773438-13.269531-.773438-20 0-10.152344.609375-20.15625 1.757812-30h94.210938c14.703125 0 29.125 5.058594 40.605469 14.242188l128.085937 102.472656c2.648438 2.117187 5.976563 3.285156 9.371094 3.285156h183.695312v-13.425781c0-3.382813 3.929688-5.238281 6.539063-3.089844l46.277344 38.09375c1.941406 1.601563 1.941406 4.578125 0 6.175781zm0 0" fill="#fc6930"/><path d="m220.878906 307.6875-27.445312 42.078125-35.941406-28.753906 27.441406-42.078125zm0 0" fill="#fc5426"/><path d="m465.136719 145.089844-46.273438 38.09375c-2.609375 2.148437-6.542969.292968-6.542969-3.089844v-14.09375h-114.652343c-5.089844 0-9.785157 2.542969-12.5625 6.808594l-126.328125 193.699218c-12.046875 18.46875-32.398438 29.492188-54.445313 29.492188h-62.671875c-10.191406-15.570312-18.734375-32.320312-25.375-50h88.046875c5.089844 0 9.785157-2.542969 12.5625-6.808594l126.328125-193.699218c12.042969-18.46875 32.398438-29.492188 54.445313-29.492188h114.652343v-12.09375c0-3.382812 3.933594-5.238281 6.542969-3.089844l46.273438 38.09375c1.945312 1.601563 1.945312 4.578125 0 6.179688zm0 0" fill="#0ed1b2"/><path d="m215.191406 188.472656 39.230469 31.378906-27.445313 42.078126-39.226562-31.382813zm0 0" fill="#0ab59e"/><path d="m488.542969 265.089844-46.277344 38.09375c-2.609375 2.148437-6.539063.292968-6.539063-3.089844v-14.09375h-125.695312c-14.703125 0-29.125-5.058594-40.605469-14.242188l-128.085937-102.472656c-2.648438-2.117187-5.976563-3.285156-9.371094-3.285156h-115.683594c6.640625-17.679688 15.183594-34.429688 25.375-50h90.308594c14.703125 0 29.125 5.058594 40.605469 14.242188l128.085937 102.472656c2.648438 2.117187 5.976563 3.285156 9.371094 3.285156h125.695312v-12.09375c0-3.378906 3.929688-5.234375 6.539063-3.089844l46.277344 38.09375c1.941406 1.601563 1.941406 4.578125 0 6.179688zm0 0" fill="#fdbf43"/></svg>