<?xml version="1.0" encoding="iso-8859-1"?>
<!-- Generator: Adobe Illustrator 19.0.0, SVG Export Plug-In . SVG Version: 6.00 Build 0)  -->
<svg xmlns="http://www.w3.org/2000/svg" xmlns:xlink="http://www.w3.org/1999/xlink" version="1.1" id="Layer_1" x="0px" y="0px" viewBox="0 0 455 455" style="enable-background:new 0 0 455 455;" xml:space="preserve" width="512px" height="512px">
<path style="fill-rule:evenodd;clip-rule:evenodd;" d="M0,0v455h455V0H0z M141.435,372.387c-7.656,7.59-18.047,12.219-29.614,12.219  c-11.555,0-21.945-4.646-29.549-12.219C74.681,364.801,70,354.462,70,342.961c0-11.502,4.681-21.875,12.272-29.483  c7.621-7.569,17.994-12.237,29.549-12.237c11.567,0,21.958,4.668,29.579,12.254c7.621,7.621,12.272,17.964,12.307,29.466  C153.672,354.462,149.021,364.783,141.435,372.387z M217.468,385c0,0,0-0.101-0.017-0.101  c-0.066-39.41-15.431-76.597-43.221-104.352c-27.786-27.838-64.925-43.256-104.195-43.291v-60.139  c57.299,0.035,109.169,23.327,146.833,61.014c37.651,37.682,60.944,89.565,60.996,146.869H217.468z M324.708,385  c-0.105-140.495-114.196-254.774-254.572-254.879V70c86.817,0.035,165.432,35.359,222.495,92.422  C349.659,219.485,384.965,298.165,385,385H324.708z" fill="#341f5e"/>
<g>
</g>
<g>
</g>
<g>
</g>
<g>
</g>
<g>
</g>
<g>
</g>
<g>
</g>
<g>
</g>
<g>
</g>
<g>
</g>
<g>
</g>
<g>
</g>
<g>
</g>
<g>
</g>
<g>
</g>
</svg>
